<svg id="Layer_1" data-name="Layer 1" xmlns="http://www.w3.org/2000/svg" viewBox="0 0 1141.8454 773.2">
  <g id="Group_5277" data-name="Group 5277" style="opacity: 0.5">
    <path id="Path_2957-2" data-name="Path 2957-2" d="M386.86,519.074C698.453,605.074,1354-2.6,1354-2.6V770.6H306.922s-35.124-51.176-59.666-108.741c-23.561-55.263-37.279-116.482-.02-143.2C270.412,502.043,313.635,498.864,386.86,519.074Z" transform="translate(-224.1546 2.6)" style="fill: #ebebeb"/>
    <path id="Path_2958-2" data-name="Path 2958-2" d="M599.943,197.133C1057.464,483.217,1366-2.6,1366-2.6V768.391L533.209,770.6S142.422-88.951,599.943,197.133Z" transform="translate(-224.1546 2.6)" style="fill: #707070"/>
    <path id="Path_2959-2" data-name="Path 2959-2" d="M873.604,195.492C454.703,57.644,1366-2.6,1366-2.6V770.6H806.87S1292.505,333.341,873.604,195.492Z" transform="translate(-224.1546 2.6)" style="fill: #adadad"/>
  </g>
</svg>
