<svg id="Layer_1" data-name="Layer 1" xmlns="http://www.w3.org/2000/svg" viewBox="0 0 33.384 33.384">
  <rect x="2.4588" y="4.3242" width="27.7032" height="28" style="fill: none"/>
  <g id="Group_4" data-name="Group 4">
    <path id="Path_265" data-name="Path 265" d="M16.749,33.442a16.692,16.692,0,1,1,16.693-16.7A16.692,16.692,0,0,1,16.749,33.442Zm0-32.49a15.8,15.8,0,1,0,15.8,15.8v-.01A15.8151,15.8151,0,0,0,16.749.948Z" transform="translate(-0.058 -0.058)" style="fill: #fd7f23"/>
  </g>
  <g id="Group_5" data-name="Group 5">
    <path id="Path_266" data-name="Path 266" d="M7.248,24.643a1.153,1.153,0,0,1-.766.919,3.992,3.992,0,0,1-1.6.323.146.146,0,0,0-.136.136h0a.135.135,0,0,0,.133.137h5.759a.135.135,0,0,0,.137-.133v-.004h0a.146.146,0,0,0-.137-.136,3.1638,3.1638,0,0,1-1.464-.323.838.838,0,0,1-.494-.919l.665-3.764a.217.217,0,0,0-.017-.1l-.885-1.465a.143.143,0,0,0-.255.051Z" transform="translate(-0.058 -0.058)" style="fill: #fd7f23"/>
  </g>
  <g id="Group_6" data-name="Group 6">
    <path id="Path_267" data-name="Path 267" d="M27.273,25.582a1.2591,1.2591,0,0,1-.613-.936L22.13,6.954a.13.13,0,0,0-.136-.1h-.97a.13.13,0,0,0-.136.1l-1.159,4.192a.5877.5877,0,0,0,0,.34l.63,2.18.239.919,2.605,10.047a.837.837,0,0,1-.494.9,2.9608,2.9608,0,0,1-1.464.323.146.146,0,0,0-.136.136h0a.1459.1459,0,0,0,.136.136h7.39a.146.146,0,0,0,.136-.136h0a.1461.1461,0,0,0-.136-.136A2.5067,2.5067,0,0,1,27.273,25.582Z" transform="translate(-0.058 -0.058)" style="fill: #fd7f23"/>
  </g>
  <g id="Group_7" data-name="Group 7">
    <path id="Path_268" data-name="Path 268" d="M17.146,20.474,11.591,7.246a.653.653,0,0,0-.6-.391h-.017a.64.64,0,0,0-.63.528l-.63,3.524a.6568.6568,0,0,0,.034.358l1.124,2.792,4.974,12.189a.6661.6661,0,0,0,.6.408h0a.6541.6541,0,0,0,.63-.493c.187-.733.391-1.516.869-3.372a.671.671,0,0,0-.034-.408Z" transform="translate(-0.058 -0.058)" style="fill: #fd7f23"/>
  </g>
</svg>
