<svg id="Layer_1" data-name="Layer 1" xmlns="http://www.w3.org/2000/svg" viewBox="0 0 1002.6 222.5">
  <g>
    <path d="M312,82.8c-.5,6.8-1.2,16.8-2.2,30.2-.9,13.4-1.7,24.2-2.3,32.4s-.9,13-.9,14.3a10.44,10.44,0,0,0,1.9,6.3,5.26,5.26,0,0,0,4.4,2.7v2.7H284.4v-2.7c1.8,0,3.5-1,5.1-3.1a12.7437,12.7437,0,0,0,2.8-6.7q6.9-89.1,6.9-96.5a11.8016,11.8016,0,0,0-2.1-6.3c-1.4-2.2-2.9-3.4-4.5-3.4V50h28.2l24.6,79.5L370.9,50H399v2.7q-2.55,0-4.5,3a10.9325,10.9325,0,0,0-1.9,6.1c0,1.3.5,9.6,1.6,24.9,1,15.3,2.1,30.9,3.2,46.8s1.7,24.4,1.8,25.5a11.2168,11.2168,0,0,0,2.7,6.8c1.7,2,3.4,3.1,5.2,3.1v2.7H373.9v-2.7a5.1648,5.1648,0,0,0,4.4-2.8,11.0738,11.0738,0,0,0,1.9-6.2q0-1.5-5.1-74.8l-28.2,86.4h-7.3Zm148.1,76.7a39.6947,39.6947,0,0,0,14.8-2.8,48.4428,48.4428,0,0,0,11-5.5c2.5-1.8,5.4-4.1,8.6-6.9l6.1,5.5c-.3.6-.8,1.4-1.5,2.5a65.0337,65.0337,0,0,1-4.7,5.5,47.7872,47.7872,0,0,1-8,6.9,45.8377,45.8377,0,0,1-11.5,5.4,47.8086,47.8086,0,0,1-15.1,2.5c-13.1,0-24-4.4-32.5-13.3a44.6084,44.6084,0,0,1-12.9-32.2,44.8875,44.8875,0,0,1,13-32.1c8.6-9.1,19.3-13.6,31.9-13.6a44.503,44.503,0,0,1,13.5,1.9,34.7982,34.7982,0,0,1,10.4,5.1,50.3375,50.3375,0,0,1,7.6,6.9,38.836,38.836,0,0,1,5.3,7.6q1.95,3.75,3.3,6.9a32.0385,32.0385,0,0,1,1.8,5.1l.4,1.9c-21.9,4.1-43.8,12.3-65.5,24.6a32.6748,32.6748,0,0,0,9.5,13.1A22.5958,22.5958,0,0,0,460.1,159.5Zm-.9-63a23.5019,23.5019,0,0,0-18.7,8.7c-4.9,5.8-7.4,13.1-7.4,21.8v.9A149.3156,149.3156,0,0,1,456,117.1a151.4051,151.4051,0,0,1,23.9-7.2,18.4426,18.4426,0,0,0-7-9.4C469.4,97.8,464.8,96.5,459.2,96.5ZM514.8,127a45.54,45.54,0,0,1,12.8-32.1c8.5-9.1,19.1-13.6,31.7-13.6A52.3019,52.3019,0,0,1,572.4,83a41.1568,41.1568,0,0,1,10.7,4.2,58.8872,58.8872,0,0,1,7.6,5,39.8651,39.8651,0,0,1,4.9,4.3l1.5,1.6-16.5,15-2.4-2.5a6.9923,6.9923,0,0,0,.4-2.7c0-3.1-1.6-5.8-4.7-8-3.1-2.3-8-3.4-14.7-3.4a23.2518,23.2518,0,0,0-18.5,8.7c-4.9,5.8-7.4,13.1-7.4,21.8a37.603,37.603,0,0,0,7.4,22.4c4.9,6.8,11.4,10.2,19.6,10.2a39.6947,39.6947,0,0,0,14.8-2.8,51.8129,51.8129,0,0,0,11.1-5.5,77.9117,77.9117,0,0,0,8.6-7.1l6.1,5.7c-.3.6-.8,1.4-1.5,2.5a54.282,54.282,0,0,1-4.7,5.4,47.7833,47.7833,0,0,1-8,6.9,45.8377,45.8377,0,0,1-11.5,5.4,47.8085,47.8085,0,0,1-15.1,2.5c-13.2,0-24.1-4.4-32.6-13.3A45.498,45.498,0,0,1,514.8,127Zm139.3,32.5a39.6947,39.6947,0,0,0,14.8-2.8,48.4428,48.4428,0,0,0,11-5.5c2.5-1.8,5.4-4.1,8.6-6.9l6.1,5.5c-.3.6-.8,1.4-1.5,2.5a65.0337,65.0337,0,0,1-4.7,5.5,47.7872,47.7872,0,0,1-8,6.9,45.8377,45.8377,0,0,1-11.5,5.4,47.8086,47.8086,0,0,1-15.1,2.5c-13.1,0-24-4.4-32.5-13.3a44.6088,44.6088,0,0,1-12.9-32.2,44.8875,44.8875,0,0,1,13-32.1c8.6-9.1,19.3-13.6,31.9-13.6a44.502,44.502,0,0,1,13.5,1.9,34.8,34.8,0,0,1,10.4,5.1,50.3367,50.3367,0,0,1,7.6,6.9,38.836,38.836,0,0,1,5.3,7.6q1.95,3.75,3.3,6.9a32.0385,32.0385,0,0,1,1.8,5.1l.4,1.9c-21.9,4.1-43.8,12.3-65.5,24.6a32.6738,32.6738,0,0,0,9.5,13.1A22.5958,22.5958,0,0,0,654.1,159.5Zm-.9-63a23.5019,23.5019,0,0,0-18.7,8.7c-4.9,5.8-7.4,13.1-7.4,21.8v.9A149.3156,149.3156,0,0,1,650,117.1a151.4051,151.4051,0,0,1,23.9-7.2,18.4426,18.4426,0,0,0-7-9.4C663.4,97.8,658.8,96.5,653.2,96.5Zm74.2-46.6V159.1a10.305,10.305,0,0,0,2.2,6.6c1.4,1.9,3.1,2.9,4.8,2.9v2.7H701.3v-2.7c1.8,0,3.4-1,4.9-3a10.7014,10.7014,0,0,0,2.2-6.6V70a10.305,10.305,0,0,0-2.2-6.6c-1.5-1.9-3.1-2.9-4.9-2.9V57.7Zm40.4,0V159.1a10.305,10.305,0,0,0,2.2,6.6c1.4,1.9,3.1,2.9,4.8,2.9v2.7H741.7v-2.7c1.8,0,3.4-1,4.9-3a10.7014,10.7014,0,0,0,2.2-6.6V70a10.305,10.305,0,0,0-2.2-6.6c-1.5-1.9-3.1-2.9-4.9-2.9V57.7Zm60.1,109.6a39.6947,39.6947,0,0,0,14.8-2.8,48.4428,48.4428,0,0,0,11-5.5c2.5-1.8,5.4-4.1,8.6-6.9l6.1,5.5c-.3.6-.8,1.4-1.5,2.5a65.0337,65.0337,0,0,1-4.7,5.5,47.7912,47.7912,0,0,1-8,6.9,45.8411,45.8411,0,0,1-11.5,5.4,47.8091,47.8091,0,0,1-15.1,2.5c-13.1,0-24-4.4-32.5-13.3a44.6084,44.6084,0,0,1-12.9-32.2,44.8871,44.8871,0,0,1,13-32.1c8.6-9.1,19.3-13.6,31.9-13.6a44.503,44.503,0,0,1,13.5,1.9A34.7982,34.7982,0,0,1,851,88.4a50.3375,50.3375,0,0,1,7.6,6.9,38.836,38.836,0,0,1,5.3,7.6q1.95,3.75,3.3,6.9a32.0262,32.0262,0,0,1,1.8,5.1l.4,1.9c-21.9,4.1-43.8,12.3-65.5,24.6a32.6738,32.6738,0,0,0,9.5,13.1A22.2088,22.2088,0,0,0,827.9,159.5Zm-.9-63a23.5019,23.5019,0,0,0-18.7,8.7c-4.9,5.8-7.4,13.1-7.4,21.8v.9a149.3156,149.3156,0,0,1,22.9-10.8,151.4051,151.4051,0,0,1,23.9-7.2,18.4426,18.4426,0,0,0-7-9.4C837.1,97.8,832.5,96.5,827,96.5Zm168.2,62.3a10.8621,10.8621,0,0,0,2.4,6.8c1.6,2,3.3,3.1,5.1,3.1v2.7H969.3v-2.7c1.8,0,3.4-1,4.9-3.1a10.6271,10.6271,0,0,0,2.2-6.5v-48a19.0957,19.0957,0,0,0-3-10.4,10.0933,10.0933,0,0,0-9.1-4.7c-5.9,0-11.2,2.6-16.1,7.9a36.2814,36.2814,0,0,1,.7,7.1v47.7a11.3775,11.3775,0,0,0,2.3,6.8c1.5,2,3.2,3.1,5,3.1v2.7H923v-2.7c1.8,0,3.4-1,4.9-3.1a10.6271,10.6271,0,0,0,2.2-6.5V111a19.0957,19.0957,0,0,0-3-10.4c-2-3.1-5.1-4.7-9.2-4.7-4.7,0-9.7,2.7-15,8v54.7a11.2728,11.2728,0,0,0,2.2,6.8c1.4,2,3.1,3.1,4.8,3.1v2.7H876.5v-2.7c1.8,0,3.4-1,4.9-3.1a11.1957,11.1957,0,0,0,2.2-6.7V101.4a10.7806,10.7806,0,0,0-2.2-6.7c-1.5-2-3.1-3-4.9-3V89l26.4-7.9v6.6q8.4-6,15-6c10.9,0,19.3,3.5,25,10.4a22.7233,22.7233,0,0,1,3.2-3.4,32.3454,32.3454,0,0,1,7.5-4.5,23.8732,23.8732,0,0,1,10.6-2.5,35.1241,35.1241,0,0,1,10.7,1.6,30.832,30.832,0,0,1,9.8,4.8,21.463,21.463,0,0,1,7.4,9.2,31.95,31.95,0,0,1,2.8,13.9v47.6Z" style="fill: #5c605f"/>
    <g>
      <circle cx="98" cy="111.2" r="95.4" style="fill: none;stroke: #ef7e2e;stroke-miterlimit: 10;stroke-width: 5.25570011138916px"/>
      <path d="M42.2,157.6q-.45,3.6-4.5,5.4a23.415,23.415,0,0,1-9.4,1.9.86.86,0,0,0-.8.8h0a.7887.7887,0,0,0,.8.8H62.1a.7887.7887,0,0,0,.8-.8h0a.86.86,0,0,0-.8-.8c-3.6-.1-6.5-.7-8.6-1.9a4.9157,4.9157,0,0,1-2.9-5.4l3.9-22.1a1.2683,1.2683,0,0,0-.1-.6l-5.2-8.6a.84.84,0,0,0-1.5.3Z" style="fill: #ef7e2e"/>
      <path d="M159.8,163.1a7.4045,7.4045,0,0,1-3.6-5.5L129.6,53.7a.76.76,0,0,0-.8-.6h-5.7a.76.76,0,0,0-.8.6l-6.8,24.6a3.4039,3.4039,0,0,0,0,2l3.7,12.8,1.4,5.4,15.3,59c.3,2.3-.6,4-2.9,5.3a17.3955,17.3955,0,0,1-8.6,1.9.86.86,0,0,0-.8.8h0a.86.86,0,0,0,.8.8h43.4a.86.86,0,0,0,.8-.8h0a.86.86,0,0,0-.8-.8C164.3,164.8,161.6,164.2,159.8,163.1Z" style="fill: #ef7e2e"/>
      <path d="M100.3,133.1,67.7,55.4a3.8251,3.8251,0,0,0-3.5-2.3h-.1a3.7541,3.7541,0,0,0-3.7,3.1L56.7,76.9a3.7991,3.7991,0,0,0,.2,2.1l6.6,16.4L92.7,167a3.92,3.92,0,0,0,3.5,2.4h0a3.8437,3.8437,0,0,0,3.7-2.9c1.1-4.3,2.3-8.9,5.1-19.8a3.9729,3.9729,0,0,0-.2-2.4Z" style="fill: #ef7e2e"/>
    </g>
    <path d="M238.9,222.5h0a2.5819,2.5819,0,0,1-2.6-2.6V2.6A2.5819,2.5819,0,0,1,238.9,0h0a2.5819,2.5819,0,0,1,2.6,2.6V219.8A2.5467,2.5467,0,0,1,238.9,222.5Z" style="fill: #5c605f"/>
  </g>
</svg>
