<?xml version="1.0" encoding="utf-8"?>
<!-- Generator: Adobe Illustrator 23.0.6, SVG Export Plug-In . SVG Version: 6.00 Build 0)  -->
<svg version="1.1" id="Layer_1" xmlns="http://www.w3.org/2000/svg" xmlns:xlink="http://www.w3.org/1999/xlink" x="0px" y="0px"
	 viewBox="0 0 1141.8 773.2" style="enable-background:new 0 0 1141.8 773.2;" xml:space="preserve">
<style type="text/css">
	.st0{opacity:0.2;}
	.st1{fill:#EBEBEB;}
	.st2{fill:#707070;}
	.st3{fill:#ADADAD;}
</style>
<g id="Group_5277_1_" class="st0">
	<path id="Path_2957-2_1_" class="st1" d="M23.1,251.9c-37.3-26.7-23.5-87.9,0-143.2C47.6,51.2,82.8,0,82.8,0h1047.1v773.2
		c0,0-655.5-607.7-967.1-521.7C89.5,271.7,46.3,268.6,23.1,251.9z"/>
	<path id="Path_2958-2_1_" class="st2" d="M309.1,0l832.8,2.2v771c0,0-308.5-485.8-766.1-199.7S309.1,0,309.1,0z"/>
	<path id="Path_2959-2_1_" class="st3" d="M582.7,0h559.1v773.2c0,0-911.3-60.2-492.4-198.1C1068.4,437.3,582.7,0,582.7,0z"/>
</g>
</svg>
