<svg id="Layer_1" data-name="Layer 1" xmlns="http://www.w3.org/2000/svg" viewBox="0 0 1002.7278 222.5007">
  <g>
    <path d="M312,82.8c-.5,6.8-1.2,16.8-2.2,30.2-.9,13.4-1.7,24.2-2.3,32.4s-.9,13-.9,14.3a10.44,10.44,0,0,0,1.9,6.3,5.26,5.26,0,0,0,4.4,2.7v2.7H284.4v-2.7c1.8,0,3.5-1,5.1-3.1a12.7438,12.7438,0,0,0,2.8-6.7q6.9-89.1,6.9-96.5a11.8028,11.8028,0,0,0-2.1-6.3c-1.4-2.2-2.9-3.4-4.5-3.4V50h28.2l24.6,79.5L370.9,50H399v2.7q-2.55,0-4.5,3a10.9325,10.9325,0,0,0-1.9,6.1c0,1.3.5,9.6,1.6,24.9,1,15.3,2.1,30.9,3.2,46.8s1.7,24.4,1.8,25.5a11.2172,11.2172,0,0,0,2.7,6.8c1.7,2,3.4,3.1,5.2,3.1v2.7H373.9v-2.7a5.1647,5.1647,0,0,0,4.4-2.8,11.0738,11.0738,0,0,0,1.9-6.2q0-1.5-5.1-74.8l-28.2,86.4h-7.3Zm148.1,76.7a39.6939,39.6939,0,0,0,14.8-2.8,48.4455,48.4455,0,0,0,11-5.5c2.5-1.8,5.4-4.1,8.6-6.9l6.1,5.5c-.3.6-.8,1.4-1.5,2.5a65.0377,65.0377,0,0,1-4.7,5.5,47.7867,47.7867,0,0,1-8,6.9,45.839,45.839,0,0,1-11.5,5.4,47.81,47.81,0,0,1-15.1,2.5c-13.1,0-24-4.4-32.5-13.3a44.6082,44.6082,0,0,1-12.9-32.2,44.8876,44.8876,0,0,1,13-32.1c8.6-9.1,19.3-13.6,31.9-13.6a44.5037,44.5037,0,0,1,13.5,1.9,34.7974,34.7974,0,0,1,10.4,5.1,50.3375,50.3375,0,0,1,7.6,6.9,38.8361,38.8361,0,0,1,5.3,7.6q1.95,3.75,3.3,6.9a32.0457,32.0457,0,0,1,1.8,5.1l.4,1.9c-21.9,4.1-43.8,12.3-65.5,24.6a32.6762,32.6762,0,0,0,9.5,13.1A22.596,22.596,0,0,0,460.1,159.5Zm-.9-63a23.502,23.502,0,0,0-18.7,8.7c-4.9,5.8-7.4,13.1-7.4,21.8v.9A149.3169,149.3169,0,0,1,456,117.1a151.4076,151.4076,0,0,1,23.9-7.2,18.4432,18.4432,0,0,0-7-9.4C469.4,97.8,464.8,96.5,459.2,96.5ZM514.8,127a45.54,45.54,0,0,1,12.8-32.1c8.5-9.1,19.1-13.6,31.7-13.6A52.3033,52.3033,0,0,1,572.4,83a41.1576,41.1576,0,0,1,10.7,4.2,58.89,58.89,0,0,1,7.6,5,39.861,39.861,0,0,1,4.9,4.3l1.5,1.6-16.5,15-2.4-2.5a6.993,6.993,0,0,0,.4-2.7c0-3.1-1.6-5.8-4.7-8-3.1-2.3-8-3.4-14.7-3.4a23.252,23.252,0,0,0-18.5,8.7c-4.9,5.8-7.4,13.1-7.4,21.8a37.6029,37.6029,0,0,0,7.4,22.4c4.9,6.8,11.4,10.2,19.6,10.2a39.6959,39.6959,0,0,0,14.8-2.8,51.816,51.816,0,0,0,11.1-5.5,77.9164,77.9164,0,0,0,8.6-7.1l6.1,5.7c-.3.6-.8,1.4-1.5,2.5a54.2932,54.2932,0,0,1-4.7,5.4,47.7907,47.7907,0,0,1-8,6.9,45.839,45.839,0,0,1-11.5,5.4,47.8122,47.8122,0,0,1-15.1,2.5c-13.2,0-24.1-4.4-32.6-13.3A45.4981,45.4981,0,0,1,514.8,127Zm139.3,32.5a39.6939,39.6939,0,0,0,14.8-2.8,48.4455,48.4455,0,0,0,11-5.5c2.5-1.8,5.4-4.1,8.6-6.9l6.1,5.5c-.3.6-.8,1.4-1.5,2.5a65.0377,65.0377,0,0,1-4.7,5.5,47.7867,47.7867,0,0,1-8,6.9,45.839,45.839,0,0,1-11.5,5.4,47.8093,47.8093,0,0,1-15.1,2.5c-13.1,0-24-4.4-32.5-13.3a44.609,44.609,0,0,1-12.9-32.2,44.8872,44.8872,0,0,1,13-32.1c8.6-9.1,19.3-13.6,31.9-13.6a44.5032,44.5032,0,0,1,13.5,1.9,34.8,34.8,0,0,1,10.4,5.1,50.332,50.332,0,0,1,7.6,6.9,38.8319,38.8319,0,0,1,5.3,7.6q1.95,3.75,3.3,6.9a32.0358,32.0358,0,0,1,1.8,5.1l.4,1.9c-21.9,4.1-43.8,12.3-65.5,24.6a32.673,32.673,0,0,0,9.5,13.1A22.596,22.596,0,0,0,654.1,159.5Zm-.9-63a23.5022,23.5022,0,0,0-18.7,8.7c-4.9,5.8-7.4,13.1-7.4,21.8v.9A149.3179,149.3179,0,0,1,650,117.1a151.4107,151.4107,0,0,1,23.9-7.2,18.4426,18.4426,0,0,0-7-9.4c-3.5-2.7-8.1-4-13.7-4Zm74.2-46.6V159.1a10.3048,10.3048,0,0,0,2.2,6.6c1.4,1.9,3.1,2.9,4.8,2.9v2.7H701.3v-2.7c1.8,0,3.4-1,4.9-3a10.7018,10.7018,0,0,0,2.2-6.6V70a10.3048,10.3048,0,0,0-2.2-6.6c-1.5-1.9-3.1-2.9-4.9-2.9V57.7Zm40.4,0V159.1a10.3048,10.3048,0,0,0,2.2,6.6c1.4,1.9,3.1,2.9,4.8,2.9v2.7H741.7v-2.7c1.8,0,3.4-1,4.9-3a10.7005,10.7005,0,0,0,2.2-6.6V70a10.3048,10.3048,0,0,0-2.2-6.6c-1.5-1.9-3.1-2.9-4.9-2.9V57.7Zm60.1,109.6a39.6943,39.6943,0,0,0,14.8-2.8,48.4455,48.4455,0,0,0,11-5.5c2.5-1.8,5.4-4.1,8.6-6.9l6.1,5.5c-.3.6-.8,1.4-1.5,2.5a65.0377,65.0377,0,0,1-4.7,5.5,47.7947,47.7947,0,0,1-8,6.9,45.8424,45.8424,0,0,1-11.5,5.4,47.8093,47.8093,0,0,1-15.1,2.5c-13.1,0-24-4.4-32.5-13.3a44.6086,44.6086,0,0,1-12.9-32.2,44.8872,44.8872,0,0,1,13-32.1c8.6-9.1,19.3-13.6,31.9-13.6a44.5032,44.5032,0,0,1,13.5,1.9A34.7968,34.7968,0,0,1,851,88.4a50.3375,50.3375,0,0,1,7.6,6.9,38.8391,38.8391,0,0,1,5.3,7.6q1.95,3.75,3.3,6.9a32.0255,32.0255,0,0,1,1.8,5.1l.4,1.9c-21.9,4.1-43.8,12.3-65.5,24.6a32.672,32.672,0,0,0,9.5,13.1,22.2083,22.2083,0,0,0,14.5,5Zm-.9-63a23.5021,23.5021,0,0,0-18.7,8.7c-4.9,5.8-7.4,13.1-7.4,21.8v.9a149.3169,149.3169,0,0,1,22.9-10.8,151.4119,151.4119,0,0,1,23.9-7.2,18.4437,18.4437,0,0,0-7-9.4c-3.6-2.7-8.2-4-13.7-4Zm168.2,62.3a10.8621,10.8621,0,0,0,2.4,6.8c1.6,2,3.3,3.1,5.1,3.1v2.7H969.3v-2.7c1.8,0,3.4-1,4.9-3.1a10.6271,10.6271,0,0,0,2.2-6.5v-48a19.0961,19.0961,0,0,0-3-10.4,10.0933,10.0933,0,0,0-9.1-4.7c-5.9,0-11.2,2.6-16.1,7.9a36.2825,36.2825,0,0,1,.7,7.1v47.7a11.3767,11.3767,0,0,0,2.3,6.8c1.5,2,3.2,3.1,5,3.1v2.7H923v-2.7c1.8,0,3.4-1,4.9-3.1a10.6262,10.6262,0,0,0,2.2-6.5V111a19.0952,19.0952,0,0,0-3-10.4c-2-3.1-5.1-4.7-9.2-4.7-4.7,0-9.7,2.7-15,8v54.7a11.2735,11.2735,0,0,0,2.2,6.8c1.4,2,3.1,3.1,4.8,3.1v2.7H876.5v-2.7c1.8,0,3.4-1,4.9-3.1a11.1954,11.1954,0,0,0,2.2-6.7V101.4a10.7808,10.7808,0,0,0-2.2-6.7c-1.5-2-3.1-3-4.9-3V89l26.4-7.9v6.6q8.4-6,15-6c10.9,0,19.3,3.5,25,10.4a22.72,22.72,0,0,1,3.2-3.4,32.3449,32.3449,0,0,1,7.5-4.5,23.8736,23.8736,0,0,1,10.6-2.5,35.124,35.124,0,0,1,10.7,1.6,30.83,30.83,0,0,1,9.8,4.8,21.4626,21.4626,0,0,1,7.4,9.2,31.9484,31.9484,0,0,1,2.8,13.9v47.6Z" transform="translate(0.0278 0.0001)" style="fill: #fff"/>
    <g>
      <path d="M98,13.1719A98.0278,98.0278,0,1,0,196.0278,111.2,98.1393,98.1393,0,0,0,98,13.1719Zm0,190.8A92.772,92.772,0,1,1,190.772,111.2,92.8768,92.8768,0,0,1,98,203.9717Z" transform="translate(0.0278 0.0001)" style="fill: #fd7f23"/>
      <path d="M62.1,164.9c-3.6-.1-6.5-.7-8.6-1.9a4.9157,4.9157,0,0,1-2.9-5.4l3.9-22.1a1.2688,1.2688,0,0,0-.1-.6l-5.2-8.6a.84.84,0,0,0-1.5.3l-5.5,31q-.45,3.6-4.5,5.4a23.4143,23.4143,0,0,1-9.4,1.9.86.86,0,0,0-.8.8.7887.7887,0,0,0,.7772.8c.0077,0,.0152,0,.0228,0H62.1a.7887.7887,0,0,0,.8-.7772c0-.0077,0-.0152,0-.0228A.86.86,0,0,0,62.1,164.9Z" transform="translate(0.0278 0.0001)" style="fill: #fd7f23"/>
      <path d="M167.8,164.7c-3.5.1-6.2-.5-8-1.6a7.4044,7.4044,0,0,1-3.6-5.5L129.6,53.7a.76.76,0,0,0-.8-.6h-5.7a.76.76,0,0,0-.8.6l-6.8,24.6a3.4035,3.4035,0,0,0,0,2l3.7,12.8,1.4,5.4,15.3,59c.3,2.3-.6,4-2.9,5.3a17.3947,17.3947,0,0,1-8.6,1.9.8.8,0,1,0,0,1.6h43.4a.8.8,0,1,0,0-1.6Z" transform="translate(0.0278 0.0001)" style="fill: #fd7f23"/>
      <path d="M100.3,133.1,67.7,55.4a3.8251,3.8251,0,0,0-3.5-2.3h-.1a3.7541,3.7541,0,0,0-3.7,3.1L56.7,76.9a3.7989,3.7989,0,0,0,.2,2.1l6.6,16.4L92.7,167a3.92,3.92,0,0,0,3.5,2.4,3.8438,3.8438,0,0,0,3.7-2.9c1.1-4.3,2.3-8.9,5.1-19.8a3.9732,3.9732,0,0,0-.2-2.4Z" transform="translate(0.0278 0.0001)" style="fill: #fd7f23"/>
    </g>
    <path d="M238.9,222.5h0a2.5819,2.5819,0,0,1-2.6-2.5637q0-.0181,0-.0363V2.6A2.5819,2.5819,0,0,1,238.8637,0q.0181,0,.0363,0h0a2.5819,2.5819,0,0,1,2.6,2.5637q0,.0182,0,.0363V219.8a2.5468,2.5468,0,0,1-2.3881,2.696Q239.0062,222.5025,238.9,222.5Z" transform="translate(0.0278 0.0001)" style="fill: #fff"/>
  </g>
</svg>
