<?xml version="1.0" encoding="utf-8"?>
<!-- Generator: Adobe Illustrator 23.0.6, SVG Export Plug-In . SVG Version: 6.00 Build 0)  -->
<svg version="1.1" id="Layer_1" xmlns="http://www.w3.org/2000/svg" xmlns:xlink="http://www.w3.org/1999/xlink" x="0px" y="0px"
	 viewBox="0 0 1141.8 773.2" style="enable-background:new 0 0 1141.8 773.2;" xml:space="preserve">
<style type="text/css">
	.st0{opacity:0.3;}
	.st1{fill:#EBEBEB;}
	.st2{fill:#707070;}
	.st3{fill:#ADADAD;}
</style>
<g id="Group_5277" class="st0">
	<path id="Path_2957-2" class="st1" d="M1118.8,521.3c37.3,26.7,23.5,87.9,0,143.2c-24.5,57.6-59.7,108.7-59.7,108.7H12V0
		c0,0,655.5,607.7,967.1,521.7C1052.4,501.5,1095.6,504.6,1118.8,521.3z"/>
	<path id="Path_2958-2" class="st2" d="M832.8,773.2L0,771V0c0,0,308.5,485.8,766.1,199.7S832.8,773.2,832.8,773.2z"/>
	<path id="Path_2959-2" class="st3" d="M559.1,773.2H0V0c0,0,911.3,60.2,492.4,198.1C73.5,335.9,559.1,773.2,559.1,773.2z"/>
</g>
</svg>
