<?xml version="1.0" encoding="utf-8"?>
<!-- Generator: Adobe Illustrator 23.0.6, SVG Export Plug-In . SVG Version: 6.00 Build 0)  -->
<svg version="1.1" id="Layer_1" xmlns="http://www.w3.org/2000/svg" xmlns:xlink="http://www.w3.org/1999/xlink" x="0px" y="0px"
	 viewBox="0 0 275.3 95.4" style="enable-background:new 0 0 275.3 95.4;" xml:space="preserve">
<style type="text/css">
	.st0{fill:#FFFFFF;}
</style>
<g>
	<path class="st0" d="M114.2,64.2c-0.4-0.8-0.6-1.7-0.6-2.7c0-0.4-0.2-3.8-0.4-10.2c-0.3-6.4-0.5-12.6-0.8-18.7
		c-0.3-6.1-0.4-9.4-0.4-10c0-0.9,0.2-1.7,0.5-2.4c0.2-0.7,0.6-1.1,1.1-1.2v-1.1h-6.8l-6.1,31.8l-5.9-31.8h-6.8V19
		c0.4,0,0.7,0.4,1.1,1.3c0.3,0.7,0.5,1.6,0.5,2.5c0,2-0.5,14.9-1.6,38.6c-0.1,1-0.3,1.9-0.7,2.7c-0.3,0.7-0.7,1.2-1.2,1.3v1.1h6.8
		v-1.1c-0.4,0-0.8-0.4-1.1-1.1c-0.3-0.7-0.5-1.6-0.4-2.5c0-0.5,0.1-2.4,0.2-5.7c0.1-3.3,0.3-7.6,0.6-13c0.2-5.3,0.4-9.4,0.5-12.1
		l6.6,35.4h1.8l6.8-34.6c0.8,19.5,1.2,29.5,1.2,29.9c0,0.9-0.2,1.7-0.4,2.5c-0.2,0.6-0.6,1.1-1.1,1.1v1.1h8v-1.1
		C114.9,65.3,114.5,64.9,114.2,64.2z"/>
	<path class="st0" d="M128.3,58.9c-0.8,1.2-2.1,1.8-3.9,1.8c-0.9,0.1-1.7-0.7-2.2-1.9c-0.5-1.2-0.8-2.6-0.8-4.1V35.9
		c0-0.9,0.2-1.8,0.5-2.6c0.2-0.7,0.7-1.1,1.2-1.2V31h-6.2v23.7c0,1.9,0.2,3.8,0.7,5.5c0.4,1.5,1,2.7,1.8,3.7
		c0.7,0.8,1.5,1.5,2.4,1.9c0.8,0.4,1.7,0.6,2.6,0.6h10.2v-1.1c-0.5-0.1-0.9-0.5-1.2-1.2c-0.3-0.8-0.5-1.7-0.5-2.7V36
		c0-1,0.2-1.9,0.5-2.7c0.2-0.7,0.7-1.2,1.2-1.2V31h-6.3V58.9z"/>
	<path class="st0" d="M148.7,30.9c-0.7-0.2-1.5-0.4-2.2-0.4c-1.4,0-2.9,0.6-4.1,1.8v-2l-6.3,3.2v1.1c0.5,0,0.9,0.5,1.2,1.2
		c0.3,0.8,0.5,1.7,0.5,2.7v23c0,1-0.2,1.9-0.5,2.7c-0.2,0.7-0.7,1.2-1.2,1.3v1.1h8v-1.1c-0.5-0.1-0.9-0.5-1.2-1.2
		c-0.4-0.8-0.5-1.7-0.5-2.7V36.9c0.8-1.3,1.8-2,2.8-2c0.7,0,1.4,0.4,1.9,1.2c0.5,0.8,0.8,1.9,0.8,3l0.7,0.9l2-8.1l-0.5-0.4
		C149.7,31.3,149.2,31.1,148.7,30.9z"/>
	<path class="st0" d="M164.4,48c-0.6-0.8-1.3-1.5-2-2c-0.7-0.5-1.5-0.9-2.2-1.3c-0.7-0.3-1.4-0.6-2-1c-0.5-0.3-1-0.7-1.5-1.3
		c-0.4-0.4-0.6-1.2-0.6-1.9c0-3,1.1-4.5,3.2-4.5c0.8-0.1,1.7,0.3,2.4,1c0.6,0.7,0.9,1.4,0.9,2.2c0,0.3,0,0.6,0,0.8l0.9,0.7l2-6.4
		l-0.8-1c-0.8-0.8-1.6-1.4-2.4-1.8c-1.1-0.6-2.2-0.9-3.3-0.9c-1.7,0-3.4,1-4.8,2.8c-1.5,1.8-2.3,4.2-2.3,7c-0.1,2.1,0.3,4.2,1,6
		c0.6,1.5,1.5,2.7,2.5,3.4c1,0.7,1.9,1.3,2.9,1.8c0.9,0.5,1.7,1.2,2.5,2.1c0.6,0.8,1,2,1,3.3c0,1.3-0.4,2.4-0.9,3.2
		c-0.6,1-1.6,1.4-2.8,1.4c-0.8,0-1.5-0.2-2.3-0.5c-0.5-0.2-1.1-0.6-1.5-1.1c-0.3-0.4-0.5-0.8-0.5-1.2c0-0.8-0.1-1.6-0.2-2.4
		l-0.6-0.5l-2,7.1l0.8,0.9c0.5,0.6,1.3,1.3,2.6,1.8c1.2,0.5,2.3,0.8,3.5,0.9l-1.2,4.7h2.3c0.3,0,0.6,0.1,0.9,0.4
		c0.2,0.2,0.4,0.7,0.4,1.1c0,0.6-0.2,1.1-0.5,1.5c-0.4,0.5-0.8,0.7-1.3,0.7c-0.2,0-0.4,0-0.6-0.1c-0.2,0-0.3-0.1-0.5-0.1
		c-0.1-0.1-0.3-0.2-0.4-0.3c-0.1-0.1-0.2-0.2-0.3-0.3c0-0.1-0.1-0.2-0.3-0.4c-0.1-0.1-0.2-0.3-0.3-0.4l-0.6,1.1
		c1.4,1.9,2.6,2.8,3.8,2.8c0.8,0,1.5-0.5,2.1-1.5c0.5-0.8,0.8-2,0.8-3.2c0-1.1-0.3-2.1-0.7-2.8c-0.5-0.7-1.1-1.1-1.8-1.1
		c-0.3,0-0.6,0-0.8,0.2l0.6-2.4c0.2-0.1,0.5-0.1,0.8-0.2c0.7-0.3,1.4-0.6,2-1.1c0.7-0.5,1.4-1.2,2-2c0.6-0.8,1.2-1.9,1.6-3.1
		c0.4-1.3,0.7-2.7,0.6-4.2c0-1.7-0.2-3.3-0.6-4.9C165.6,50,165.1,48.9,164.4,48z"/>
	<path class="st0" d="M174.8,64.2c-0.4-0.8-0.5-1.7-0.5-2.7V30.6l-6.3,3.2v1.1c0.5,0,0.9,0.5,1.2,1.2c0.3,0.8,0.5,1.7,0.5,2.7v22.8
		c0,1-0.2,1.9-0.5,2.7c-0.2,0.7-0.7,1.2-1.2,1.2v1.1h8v-1.1C175.5,65.3,175,64.9,174.8,64.2z"/>
	<path class="st0" d="M172,27.2c0.6,0,1.2-0.4,1.6-1.1c0.4-0.7,0.7-1.7,0.7-2.7c0-1-0.2-2-0.7-2.7c-0.4-0.7-1-1.1-1.6-1.1
		c-0.6,0-1.2,0.4-1.6,1.1c-0.9,1.4-0.9,3.7-0.1,5.2c0,0.1,0.1,0.1,0.1,0.2C170.8,26.8,171.4,27.2,172,27.2z"/>
	<path class="st0" d="M184.7,56.2V36.6h3.6l1-5.6h-4.6V20.9h-2.4l-0.1,1c-0.1,0.9-0.2,1.7-0.4,2.6c-0.2,1-0.5,2-0.8,3
		c-0.3,1-0.8,1.9-1.4,2.5c-0.6,0.7-1.3,1.1-2.1,1l-1.3,5.6h3.8v20.3c0,2.6,0.6,5.1,1.7,6.8c1.1,1.8,2.6,2.8,4.1,2.8h3.2v-4.3
		C186.2,62.1,184.7,60.2,184.7,56.2z"/>
</g>
</svg>
